<?xml version="1.0" encoding="UTF-8"?>
<svg width="600px" height="200px" viewBox="0 0 667 295" xmlns="http://www.w3.org/2000/svg" xmlns:xlink="http://www.w3.org/1999/xlink" version="1.1">
 <!-- Generated by Pixelmator Pro 2.1.3 -->
 <g id="New-Group-copy">
  <path id="Laurel" d="M501.145 167.847 C500.739 167.857 500.278 167.809 499.762 167.704 L474.477 162.546 C473.053 162.255 472.487 161.399 472.777 159.976 L473.578 156.048 C473.906 154.44 474.862 153.392 476.445 152.901 477.458 152.629 478.118 152.321 478.428 151.977 478.737 151.634 479.004 150.912 479.229 149.809 L496.641 64.45 C496.969 62.843 496.569 61.637 495.441 60.833 494.039 59.734 493.515 58.311 493.871 56.565 L494.574 53.12 C494.874 51.65 495.989 51.113 497.918 51.507 L519.205 55.849 C520.353 56.083 521.092 56.33 521.422 56.589 521.752 56.847 521.777 57.666 521.496 59.044 L501.863 155.288 C501.432 157.401 501.854 158.849 503.129 159.636 504.018 160.2 504.341 161.08 504.098 162.274 L503.297 166.2 C503.079 167.268 502.362 167.817 501.145 167.847 Z M443.158 159.343 C442.235 159.337 441.294 159.285 440.332 159.186 431.519 158.284 424.442 153.519 419.105 144.892 413.769 136.264 411.924 123.907 413.57 107.819 415.217 91.731 419.315 79.771 425.865 71.936 432.416 64.102 440.308 60.656 449.541 61.601 457.468 62.412 463.471 66.609 467.549 74.188 471.626 81.768 472.996 92.085 471.66 105.142 L470.994 111.647 439.588 108.433 436.66 137.042 C436.274 140.819 436.706 143.854 437.955 146.149 439.204 148.445 440.971 149.71 443.256 149.944 446.8 150.307 449.787 149.092 452.217 146.302 454.646 143.511 456.199 139.512 456.873 134.304 457.206 131.511 457.645 129.86 458.191 129.351 458.738 128.841 460.458 128.734 463.35 129.03 465.868 129.288 467.439 129.708 468.063 130.29 468.686 130.872 468.892 132.187 468.682 134.239 467.947 141.42 464.962 147.572 459.727 152.69 455.145 157.169 449.622 159.386 443.158 159.343 Z M449.926 100.655 L452.295 77.503 C452.744 73.119 451.406 70.768 448.281 70.448 445.11 70.124 443.302 72.153 442.854 76.536 L440.482 99.69 449.926 100.655 Z M388.354 76.849 C388.962 75.748 389.722 73.809 390.634 71.031 392.663 65.016 394.565 61.27 396.338 59.795 398.111 58.319 400.027 57.624 402.088 57.709 404.898 57.824 406.963 59.246 408.282 61.974 409.601 64.702 410.177 68.08 410.012 72.108 409.656 80.773 407.043 85.005 402.172 84.805 399.737 84.705 397.922 83.2 396.728 80.289 395.999 78.617 395.213 77.764 394.37 77.729 392.262 77.643 391.113 79.918 390.923 84.555 L388.619 140.687 C388.546 142.467 389.312 143.812 390.916 144.722 392.523 145.586 393.29 146.907 393.217 148.687 L393.087 151.848 C393.041 152.972 392.883 153.681 392.612 153.975 392.342 154.269 391.599 154.391 390.381 154.341 L363.895 153.254 C362.069 153.179 361.191 152.275 361.262 150.542 L361.421 146.678 C361.474 145.367 361.908 144.517 362.722 144.128 364.347 143.397 365.193 142.212 365.26 140.573 L368.164 69.828 C368.229 68.235 367.715 67.065 366.619 66.316 365.43 65.563 364.751 64.984 364.58 64.578 364.409 64.173 364.364 62.963 364.447 60.949 364.516 59.263 364.805 58.219 365.314 57.818 365.824 57.416 366.663 57.24 367.834 57.288 L386.803 58.066 C387.693 58.103 388.291 58.374 388.599 58.879 388.907 59.384 389.022 60.574 388.945 62.447 Z M292.401 68.051 C291.789 67.776 291.318 67.569 290.988 67.432 289.812 66.928 289.068 66.431 288.759 65.942 288.449 65.453 288.287 64.435 288.272 62.888 288.264 62.044 288.234 61.341 288.181 60.779 288.167 59.373 288.358 58.446 288.752 57.996 289.146 57.547 290.022 57.316 291.382 57.303 L313.248 57.089 C314.326 57.079 314.984 57.236 315.221 57.562 315.459 57.888 315.584 58.684 315.596 59.949 L316.272 129.204 C316.331 135.25 318.025 138.258 321.353 138.225 323.884 138.2 325.795 137.104 327.086 134.935 L326.452 69.899 C326.435 68.211 325.602 66.907 323.952 65.985 323.151 65.524 322.666 65.025 322.496 64.488 322.327 63.95 322.227 62.135 322.197 59.041 322.184 57.682 322.974 56.994 324.568 56.979 L347.559 56.755 C348.543 56.745 349.142 56.88 349.356 57.159 349.569 57.438 349.682 58.187 349.694 59.406 L350.48 139.98 C350.496 141.527 351.139 142.599 352.41 143.196 353.965 144.024 354.753 145.423 354.772 147.392 354.799 150.204 354.709 151.799 354.502 152.176 354.295 152.553 353.558 152.747 352.293 152.76 L330.919 152.968 C329.559 152.982 328.62 152.745 328.099 152.258 327.579 151.77 327.311 150.707 327.295 149.066 L327.277 147.308 C327.259 145.433 327.225 144.379 327.176 144.145 319.787 150.78 313.515 154.123 308.359 154.173 303.906 154.216 300.259 152.775 297.418 149.85 294.577 146.924 293.115 141.243 293.033 132.806 Z M252.039 87.586 L251.022 74.054 C250.741 70.315 249.081 68.559 246.043 68.788 241.883 69.101 240.015 72.085 240.44 77.741 240.679 80.919 240.488 83.214 239.865 84.624 239.242 86.034 237.693 87.313 235.218 88.463 232.742 89.613 230.056 90.297 227.158 90.515 221.221 90.961 218.014 88.006 217.536 81.648 217.086 75.665 219.302 70.587 224.182 66.412 229.063 62.238 235.663 59.838 243.983 59.212 249.452 58.801 254.428 59.179 258.911 60.346 263.394 61.513 267.078 63.775 269.962 67.131 272.847 70.486 274.449 74.291 274.769 78.545 L279.582 142.559 C279.7 142.879 280.454 143.528 281.843 144.504 282.831 145.135 283.376 146.129 283.477 147.484 283.618 149.354 283.46 150.694 283.004 151.504 282.548 152.313 281.351 153.12 279.414 153.924 277.476 154.728 275.012 155.242 272.02 155.467 268.374 155.741 265.286 155.303 262.755 154.154 260.224 153.005 258.135 150.541 256.488 146.763 252.738 151.276 249.644 154.211 247.208 155.57 244.772 156.928 242.221 157.707 239.557 157.908 233.621 158.354 228.853 156.374 225.255 151.967 221.657 147.56 219.461 140.075 218.666 129.511 217.872 118.947 218.841 111.506 221.571 107.187 224.302 102.869 229.955 98.648 238.529 94.525 243.977 91.953 248.48 89.64 252.039 87.586 Z M252.725 96.701 C247.618 99.436 244.661 102.302 243.852 105.301 243.043 108.3 243.024 114.917 243.793 125.154 244.359 132.68 245.137 137.404 246.128 139.328 247.119 141.251 248.642 142.135 250.699 141.981 254.298 141.71 255.873 138.583 255.423 132.6 Z M192.121 154.783 L196.068 154.084 C198.099 153.725 199.456 152.652 200.139 150.865 200.823 149.078 201.431 145.115 201.964 138.975 202.117 136.615 202.544 135.124 203.243 134.5 203.942 133.877 205.238 133.398 207.13 133.063 209.207 132.696 210.576 132.632 211.238 132.872 211.899 133.112 212.311 133.694 212.475 134.617 212.589 135.263 212.657 136.322 212.679 137.794 L213.183 154.77 C213.208 156.527 213.05 157.721 212.71 158.353 212.369 158.984 211.53 159.418 210.191 159.655 L164.633 167.713 C162.694 168.056 161.512 167.027 161.088 164.627 160.761 162.781 160.678 161.57 160.838 160.994 160.998 160.418 161.469 159.918 162.251 159.494 164.735 158.198 165.622 155.542 164.911 151.526 L150.363 69.272 C150.061 67.564 149.014 66.488 147.221 66.043 145.684 65.696 144.689 65.182 144.235 64.501 143.782 63.819 143.404 62.625 143.102 60.917 142.742 58.886 142.658 57.603 142.85 57.07 143.041 56.536 143.737 56.163 144.937 55.951 L176.855 50.305 C178.055 50.093 178.926 50.237 179.466 50.736 180.007 51.236 180.502 52.755 180.951 55.293 181.22 56.817 181.252 57.87 181.046 58.454 180.839 59.038 180.15 59.648 178.977 60.284 176.808 61.477 175.923 63.204 176.324 65.466 Z" fill="#023a00" fill-opacity="1" stroke="none"/>
  <defs>
   <text id="string" transform="matrix(1.0 0.0 0.0 1.0 155.0 172.0)" text-decoration="none" y="89.0" fill="#023a00" font-family="BernardMT-Condensed, Bernard MT Condensed" x="1.0" font-size="92">Bike Shop</text>
  </defs>
  <use id="Bike-Shop" xlink:href="#string"/>
 </g>
</svg>
