<?xml version="1.0" encoding="UTF-8"?>
<svg width="450px" height="188px" viewBox="0 0 764 188" xmlns="http://www.w3.org/2000/svg" xmlns:xlink="http://www.w3.org/1999/xlink" version="1.1">
 <!-- Generated by Pixelmator Pro 2.1.3 -->
 <path id="Laurel-Bike-Shop-copy" d="M533.244 187.613 C528.033 187.613 523.13 186.789 518.533 185.142 513.936 183.495 509.885 181.166 506.381 178.156 502.877 175.146 500.143 171.636 498.182 167.623 496.22 163.61 495.24 159.417 495.24 155.045 495.24 149.235 496.932 143.814 500.316 138.783 503.701 133.752 508.238 129.762 513.928 126.812 519.618 123.862 525.787 122.386 532.436 122.386 538.305 122.386 543.674 123.323 548.541 125.195 553.408 127.067 557.637 129.798 561.23 133.392 564.255 136.447 566.591 139.854 568.238 143.613 569.885 147.371 570.709 151.211 570.709 155.134 570.709 161.034 569.04 166.47 565.701 171.441 562.362 176.412 557.823 180.351 552.088 183.255 546.353 186.16 540.072 187.613 533.244 187.613 Z M368.875 187.523 C365.97 187.523 363.238 187.232 360.678 186.648 358.117 186.064 354.994 184.992 351.311 183.435 348.915 182.477 347.088 181.824 345.83 181.48 344.572 181.136 343.389 180.964 342.281 180.964 340.155 180.964 338.352 181.525 336.869 182.648 335.387 183.771 334.405 185.367 333.926 187.433 L332.354 187.433 332.354 158.414 333.926 158.414 C334.555 163.565 336.636 168.237 340.17 172.429 342.296 174.885 345.013 177.17 348.322 179.281 351.632 181.392 355.099 183.031 358.723 184.199 362.346 185.367 365.79 185.951 369.055 185.951 371.96 185.951 374.618 185.472 377.029 184.513 379.44 183.555 381.318 182.222 382.666 180.515 384.014 178.808 384.688 176.877 384.688 174.72 384.688 172.444 383.774 170.393 381.947 168.566 381.109 167.757 380.022 167.009 378.689 166.32 377.357 165.631 375.637 164.927 373.525 164.209 371.414 163.49 368.516 162.636 364.832 161.648 L360.34 160.435 C353.332 158.548 348.48 157.081 345.785 156.033 342.76 154.925 340.388 153.817 338.666 152.709 336.944 151.601 335.453 150.193 334.195 148.486 332.339 146.09 331.41 143.455 331.41 140.58 331.41 137.106 332.443 133.985 334.51 131.214 336.576 128.444 339.466 126.28 343.18 124.722 346.893 123.165 351.011 122.386 355.533 122.386 362.361 122.386 369.444 124.288 376.781 128.091 379.357 129.379 381.109 130.023 382.037 130.023 384.373 130.023 386.05 128.301 387.068 124.857 L388.641 124.857 388.641 146.375 387.068 146.375 C385.182 141.194 383.04 137.151 380.645 134.246 378.908 132.209 376.728 130.421 374.107 128.879 371.487 127.336 368.552 126.121 365.303 125.238 362.053 124.354 358.768 123.914 355.443 123.914 352.958 123.914 350.742 124.258 348.795 124.947 346.848 125.636 345.201 126.654 343.854 128.002 342.895 128.96 342.132 130.038 341.563 131.236 340.993 132.434 340.709 133.587 340.709 134.695 340.709 136.791 341.518 138.603 343.135 140.13 343.883 140.879 344.953 141.598 346.346 142.287 347.738 142.976 349.535 143.649 351.736 144.308 353.938 144.967 357.016 145.776 360.969 146.734 362.047 147.063 362.781 147.258 363.17 147.318 L365.371 147.857 368.875 148.755 C374.805 150.283 379.132 151.63 381.857 152.798 384.583 153.966 386.904 155.509 388.82 157.425 390.318 158.833 391.479 160.48 392.303 162.367 393.126 164.254 393.537 166.29 393.537 168.476 393.537 170.632 393.073 172.797 392.145 174.968 391.216 177.14 389.898 179.048 388.191 180.695 385.975 182.971 383.243 184.678 379.994 185.816 376.745 186.954 373.038 187.523 368.875 187.523 Z M0.83 186.4 L0.83 184.648 2.672 184.648 C6.535 184.648 9.404 183.711 11.275 181.839 13.147 179.968 14.082 177.101 14.082 173.238 L14.082 136.716 C14.082 132.823 13.147 129.933 11.275 128.047 9.404 126.16 6.535 125.216 2.672 125.216 L0.83 125.216 0.83 123.644 46.83 123.644 C50.394 123.644 53.838 123.995 57.162 124.699 60.486 125.403 63.092 126.339 64.979 127.507 67.314 128.885 69.126 130.554 70.414 132.515 71.702 134.477 72.346 136.582 72.346 138.828 72.346 142.481 70.324 145.641 66.281 148.306 64.664 149.384 62.927 150.283 61.07 151.002 59.214 151.72 56.593 152.544 53.209 153.472 L53.209 153.652 C57.521 154.461 61.07 155.434 63.855 156.572 71.462 159.926 75.266 164.538 75.266 170.408 75.266 173.642 74.121 176.464 71.83 178.875 69.539 181.285 66.266 183.142 62.014 184.445 57.761 185.748 52.745 186.4 46.965 186.4 L0.83 186.4 Z M83.756 186.4 L83.756 184.648 85.508 184.648 C89.371 184.648 92.24 183.711 94.111 181.839 95.983 179.968 96.918 177.101 96.918 173.238 97.158 171.621 97.344 170.192 97.479 168.949 97.613 167.706 97.697 166.281 97.727 164.679 97.757 163.077 97.757 161.064 97.727 158.638 97.607 148.396 97.307 140.684 96.828 135.504 96.648 133.407 96.313 131.775 95.818 130.607 95.324 129.439 94.582 128.466 93.594 127.687 91.797 126.1 89.102 125.306 85.508 125.306 L83.756 125.306 83.756 123.644 123.287 123.644 123.287 125.306 121.535 125.306 C117.672 125.306 114.812 126.235 112.955 128.091 111.098 129.948 110.17 132.823 110.17 136.716 L110.17 173.238 C110.17 177.101 111.107 179.968 112.979 181.839 114.85 183.711 117.702 184.648 121.535 184.648 L123.287 184.648 123.287 186.4 83.756 186.4 Z M132.406 186.4 L132.406 184.648 134.158 184.648 C138.021 184.648 140.905 183.705 142.807 181.818 144.708 179.931 145.658 177.071 145.658 173.238 L145.658 136.716 C145.658 132.853 144.708 129.972 142.807 128.07 140.905 126.168 138.021 125.216 134.158 125.216 L132.316 125.216 132.316 123.644 172.027 123.644 172.027 125.216 170.186 125.216 C166.412 125.216 163.567 126.168 161.65 128.07 159.734 129.972 158.775 132.853 158.775 136.716 L158.775 164.029 188.514 140.22 C190.49 138.573 191.816 137.232 192.49 136.199 193.164 135.166 193.5 133.961 193.5 132.584 193.5 130.337 192.542 128.547 190.625 127.214 188.708 125.882 186.103 125.216 182.809 125.216 L181.326 125.216 181.326 123.644 218.027 123.644 218.027 125.216 217.129 125.216 C212.068 125.216 204.865 128.99 195.521 136.537 L183.168 146.375 202.125 175.439 C204.221 178.673 206.431 181.016 208.752 182.468 211.073 183.921 213.775 184.648 216.859 184.648 L218.027 184.648 218.027 186.4 179.305 186.4 179.305 184.648 181.326 184.648 C187.046 184.648 189.906 183.3 189.906 180.605 189.906 180.126 189.78 179.608 189.525 179.054 189.271 178.5 188.753 177.61 187.975 176.382 L173.6 154.191 158.775 166.05 158.775 173.238 C158.775 177.071 159.734 179.931 161.65 181.818 163.567 183.705 166.412 184.648 170.186 184.648 L172.027 184.648 172.027 186.4 132.406 186.4 Z M222.475 186.4 L222.385 184.738 224.092 184.738 C231.699 184.738 235.502 180.905 235.502 173.238 L235.502 136.716 C235.502 132.823 234.574 129.948 232.717 128.091 230.86 126.235 227.985 125.306 224.092 125.306 L222.385 125.306 222.385 123.644 289.139 123.644 289.139 147.947 287.791 147.947 C286.563 143.694 285.464 140.513 284.49 138.402 283.517 136.291 282.251 134.291 280.693 132.404 278.807 130.158 276.755 128.556 274.539 127.597 270.855 126.07 266.378 125.306 261.107 125.306 L248.754 125.306 248.754 155.134 252.078 155.134 C257.02 155.134 260.943 153.008 263.848 148.755 265.345 146.569 266.453 143.964 267.172 140.939 267.531 139.651 267.861 137.75 268.16 135.234 L269.732 135.234 269.732 176.382 268.16 176.382 C267.801 174.166 267.375 172.078 266.881 170.117 266.387 168.155 265.831 166.559 265.217 165.332 264.603 164.104 263.818 162.876 262.859 161.648 260.164 158.324 256.331 156.662 251.359 156.662 L248.754 156.662 248.754 184.738 259.086 184.738 C262.141 184.738 264.889 184.52 267.33 184.086 269.771 183.651 271.964 182.979 273.91 182.066 275.857 181.153 277.684 179.961 279.391 178.494 282.326 176.008 284.602 172.908 286.219 169.195 287.147 167.069 288.12 164.194 289.139 160.57 L290.801 160.57 290.801 186.4 222.475 186.4 Z M399.602 186.4 L399.602 184.648 401.623 184.648 C405.486 184.648 408.353 183.711 410.225 181.839 412.096 179.968 413.033 177.101 413.033 173.238 413.423 171.112 413.671 169.097 413.775 167.195 413.88 165.293 413.902 162.442 413.842 158.638 413.782 154.565 413.654 150.058 413.459 145.117 413.264 140.175 413.078 136.971 412.898 135.504 412.719 133.317 412.389 131.662 411.91 130.539 411.431 129.416 410.697 128.466 409.709 127.687 407.912 126.1 405.217 125.306 401.623 125.306 L399.467 125.306 399.467 123.644 439.043 123.644 439.043 125.306 437.65 125.306 C433.787 125.306 430.921 126.241 429.049 128.113 427.177 129.985 426.24 132.853 426.24 136.716 L426.24 153.562 460.021 153.562 460.021 136.716 C460.021 132.823 459.093 129.948 457.236 128.091 455.38 126.235 452.505 125.306 448.611 125.306 L447.309 125.306 447.309 123.644 486.525 123.644 486.525 125.306 484.684 125.306 C480.85 125.306 477.99 126.241 476.104 128.113 474.217 129.985 473.273 132.853 473.273 136.716 L473.273 173.238 C473.273 177.071 474.232 179.931 476.148 181.818 478.065 183.705 480.91 184.648 484.684 184.648 L486.525 184.648 486.525 186.4 447.309 186.4 447.309 184.648 448.611 184.648 C452.475 184.648 455.341 183.711 457.213 181.839 459.085 179.968 460.021 177.101 460.021 173.238 L460.021 155.404 426.24 155.404 426.24 173.238 C426.24 177.071 427.199 179.931 429.115 181.818 431.032 183.705 433.877 184.648 437.65 184.648 L439.043 184.648 439.043 186.4 399.602 186.4 Z M578.885 186.4 L578.885 184.738 581.086 184.738 C588.693 184.738 592.496 180.905 592.496 173.238 L592.496 136.716 C592.496 129.11 588.693 125.306 581.086 125.306 L578.975 125.306 578.975 123.644 616.439 123.644 C618.656 123.644 621.081 123.719 623.717 123.869 626.352 124.018 628.718 124.205 630.814 124.429 632.911 124.654 634.648 124.917 636.025 125.216 640.967 126.265 644.749 128.145 647.369 130.855 649.99 133.565 651.299 136.926 651.299 140.939 651.299 143.694 650.67 146.15 649.412 148.306 648.154 150.463 646.306 152.283 643.865 153.765 641.424 155.248 638.436 156.377 634.902 157.156 631.368 157.935 627.385 158.324 622.953 158.324 L605.748 158.324 605.748 173.238 C605.748 180.905 609.551 184.738 617.158 184.738 L620.303 184.738 620.303 186.4 578.885 186.4 Z M533.064 185.951 C537.497 185.951 541.352 184.686 544.631 182.156 547.91 179.625 550.426 176.008 552.178 171.306 553.93 166.604 554.807 161.019 554.807 154.55 554.807 150.358 554.327 146.434 553.369 142.781 552.411 139.127 551.033 135.944 549.236 133.234 547.439 130.524 545.268 128.376 542.723 126.789 541.465 125.95 540.012 125.276 538.365 124.767 536.718 124.258 535.131 124.004 533.604 124.004 530.878 124.004 528.311 124.474 525.9 125.418 523.49 126.361 521.46 127.702 519.813 129.439 518.016 131.326 516.482 133.565 515.209 136.156 513.936 138.746 512.978 141.634 512.334 144.824 511.69 148.013 511.367 151.451 511.367 155.134 511.367 159.746 511.876 163.946 512.895 167.734 513.913 171.522 515.38 174.787 517.297 177.527 519.214 180.267 521.505 182.357 524.17 183.795 526.835 185.232 529.8 185.951 533.064 185.951 Z M27.334 184.828 L41.439 184.828 C47.399 184.828 51.966 183.502 55.141 180.851 58.315 178.201 59.902 174.436 59.902 169.554 59.902 165.392 58.615 162.082 56.039 159.627 54.092 157.68 51.712 156.332 48.896 155.584 46.081 154.835 41.964 154.461 36.543 154.461 L27.334 154.461 27.334 184.828 Z M605.748 156.572 L618.281 156.572 C624.481 156.572 629.063 155.291 632.027 152.73 634.992 150.17 636.475 146.21 636.475 140.849 636.475 134.59 634.423 130.233 630.32 127.777 628.853 126.908 627.131 126.28 625.154 125.89 623.178 125.501 620.722 125.306 617.787 125.306 L605.748 125.306 605.748 156.572 Z M27.334 152.709 L40.945 152.709 C52.116 152.709 57.701 147.842 57.701 138.109 57.701 133.737 56.512 130.494 54.131 128.382 51.75 126.271 48.073 125.216 43.102 125.216 L27.334 125.216 27.334 152.709 Z M318.133 103.039 C310.492 103.039 303.555 102.289 297.32 100.789 291.086 99.289 285.93 97.156 281.852 94.39 274.164 89.093 270.32 81.5 270.32 71.609 L270.32 23.234 C270.32 11.328 264.367 5.375 252.461 5.375 L248.453 5.375 248.453 2.773 316.586 2.773 316.586 5.375 308.781 5.375 C302.781 5.375 298.305 6.839 295.352 9.769 292.398 12.699 290.922 17.187 290.922 23.234 L290.922 73.086 C290.922 78.757 292.234 83.632 294.859 87.711 297.484 91.789 301.258 94.929 306.18 97.132 311.102 99.336 316.961 100.437 323.758 100.437 329.711 100.437 335.266 99.582 340.422 97.871 345.578 96.16 349.68 93.804 352.727 90.804 358.305 85.086 361.094 77.07 361.094 66.757 L361.094 31.601 C361.094 20.351 357.813 12.711 351.25 8.679 349.375 7.507 347.406 6.687 345.344 6.218 343.281 5.75 340.305 5.468 336.414 5.375 L336.414 2.773 384.086 2.773 384.086 5.375 C381.133 5.609 378.789 6.007 377.055 6.57 375.32 7.132 373.539 8.07 371.711 9.382 369.039 11.398 367 14.082 365.594 17.433 364.188 20.785 363.484 24.734 363.484 29.281 L363.484 68.445 C363.484 78.851 360.648 86.82 354.977 92.351 351.836 95.351 348.484 97.507 344.922 98.82 337.422 101.632 328.492 103.039 318.133 103.039 Z M2.43 101 L2.289 98.398 5.945 98.398 C17.852 98.398 23.805 92.398 23.805 80.398 L23.805 23.234 C23.805 11.328 17.852 5.375 5.945 5.375 L2.43 5.375 2.43 2.773 69.438 2.773 69.438 5.375 62.336 5.375 C56.289 5.375 51.813 6.828 48.906 9.734 46 12.64 44.547 17.14 44.547 23.234 L44.547 98.398 70 98.398 C75.016 98.398 79.75 97.285 84.203 95.058 88.656 92.832 92.523 89.726 95.805 85.742 97.773 83.257 99.508 80.797 101.008 78.359 102.508 75.922 103.938 72.968 105.297 69.5 106.656 66.031 107.992 62.047 109.305 57.547 L111.906 57.547 111.906 101 2.43 101 Z M119.57 101 L119.57 98.257 C122.477 97.929 124.785 97.414 126.496 96.711 128.207 96.007 130.117 94.836 132.227 93.195 137.195 89.351 142.047 82.109 146.781 71.468 L178 0.804 180.602 0.804 220.117 86.726 C221.383 89.398 222.801 91.601 224.371 93.336 225.941 95.07 227.711 96.324 229.68 97.097 231.648 97.871 233.969 98.257 236.641 98.257 L239.242 98.257 239.242 101 182.219 101 182.219 98.257 189.672 98.257 C193.375 98.257 196.082 97.754 197.793 96.746 199.504 95.738 200.359 94.179 200.359 92.07 200.359 90.757 200.02 89.164 199.34 87.289 198.66 85.414 197.172 82.015 194.875 77.093 194.734 76.812 194.523 76.343 194.242 75.687 193.961 75.031 193.656 74.398 193.328 73.789 L191.711 70.203 150.086 70.203 146.922 77.515 C145.891 80 145.375 82.507 145.375 85.039 145.375 87.195 145.973 89.328 147.168 91.437 148.363 93.547 149.922 95.14 151.844 96.218 153.109 96.968 154.246 97.472 155.254 97.73 156.262 97.988 157.703 98.164 159.578 98.257 L159.578 101 119.57 101 Z M394.211 101 L394.211 98.257 396.883 98.257 C402.93 98.257 407.418 96.793 410.348 93.863 413.277 90.933 414.742 86.445 414.742 80.398 L414.742 23.234 C414.742 17.14 413.289 12.64 410.383 9.734 407.477 6.828 402.977 5.375 396.883 5.375 L394.211 5.375 394.211 2.773 470.359 2.773 C480.672 2.773 488.828 3.523 494.828 5.023 500.828 6.523 505.586 9.054 509.102 12.617 511.117 14.632 512.723 17.023 513.918 19.789 515.113 22.554 515.711 25.297 515.711 28.015 515.711 35.422 511.867 41.375 504.18 45.875 501.32 47.422 497.43 48.804 492.508 50.023 487.586 51.242 482.688 52.062 477.813 52.484 474.109 52.765 468.461 52.906 460.867 52.906 L460.867 53.187 C464.617 55.625 468.016 57.64 471.063 59.234 474.109 60.828 477.18 62.175 480.273 63.277 483.367 64.379 486.883 65.375 490.82 66.265 L493.141 69.781 C494.688 72.031 495.836 73.718 496.586 74.843 497.336 75.968 498.203 77.257 499.188 78.711 501.813 82.695 504.309 86.152 506.676 89.082 509.043 92.011 511 94.062 512.547 95.234 515.594 97.25 519.953 98.257 525.625 98.257 L528.367 98.257 528.367 101 491.523 101 457.563 52.906 435.484 52.906 435.484 80.398 C435.484 86.398 436.961 90.875 439.914 93.828 442.867 96.781 447.344 98.257 453.344 98.257 L456.227 98.257 456.227 101 394.211 101 Z M535.469 101 L535.328 98.398 538 98.398 C549.906 98.398 555.859 92.398 555.859 80.398 L555.859 23.234 C555.859 17.14 554.406 12.64 551.5 9.734 548.594 6.828 544.094 5.375 538 5.375 L535.328 5.375 535.328 2.773 639.813 2.773 639.813 40.812 637.703 40.812 C635.781 34.156 634.059 29.175 632.535 25.871 631.012 22.566 629.031 19.437 626.594 16.484 623.641 12.968 620.43 10.461 616.961 8.961 611.195 6.57 604.188 5.375 595.938 5.375 L576.602 5.375 576.602 52.062 581.805 52.062 C589.539 52.062 595.68 48.734 600.227 42.078 602.57 38.656 604.305 34.578 605.43 29.843 605.992 27.828 606.508 24.851 606.977 20.914 L609.438 20.914 609.438 85.32 606.977 85.32 C606.414 81.851 605.746 78.582 604.973 75.511 604.199 72.441 603.332 69.945 602.371 68.023 601.41 66.101 600.18 64.179 598.68 62.257 594.461 57.054 588.461 54.453 580.68 54.453 L576.602 54.453 576.602 98.398 592.773 98.398 C597.555 98.398 601.855 98.058 605.676 97.379 609.496 96.699 612.93 95.644 615.977 94.214 619.023 92.785 621.883 90.922 624.555 88.625 629.148 84.734 632.711 79.882 635.242 74.07 636.695 70.742 638.219 66.242 639.813 60.57 L642.414 60.57 642.414 101 535.469 101 Z M653.523 101 L653.383 98.398 657.039 98.398 C668.945 98.398 674.898 92.398 674.898 80.398 L674.898 23.234 C674.898 11.328 668.945 5.375 657.039 5.375 L653.523 5.375 653.523 2.773 720.531 2.773 720.531 5.375 713.43 5.375 C707.383 5.375 702.906 6.828 700 9.734 697.094 12.64 695.641 17.14 695.641 23.234 L695.641 98.398 721.094 98.398 C726.109 98.398 730.844 97.285 735.297 95.058 739.75 92.832 743.617 89.726 746.898 85.742 748.867 83.257 750.602 80.797 752.102 78.359 753.602 75.922 755.031 72.968 756.391 69.5 757.75 66.031 759.086 62.046 760.398 57.547 L763 57.547 763 101 653.523 101 Z M151.281 67.601 L190.305 67.601 170.547 23.797 151.281 67.601 Z M435.484 50.304 L463.469 50.304 C470.078 50.304 475.504 49.496 479.746 47.879 483.988 46.261 487.152 43.8 489.238 40.496 491.324 37.191 492.367 32.937 492.367 27.734 492.367 12.828 482.875 5.375 463.891 5.375 L435.484 5.375 435.484 50.304 Z" fill="#023a00" fill-opacity="1" stroke="none"/>
</svg>
